<?xml version="1.0" standalone="no"?>
<!DOCTYPE svg PUBLIC "-//W3C//DTD SVG 20010904//EN"
 "http://www.w3.org/TR/2001/REC-SVG-20010904/DTD/svg10.dtd">
<svg version="1.0" xmlns="http://www.w3.org/2000/svg"
 width="780.000000pt" height="780.000000pt" viewBox="0 0 780.000000 780.000000"
 preserveAspectRatio="xMidYMid meet">
<metadata>
Created by potrace 1.11, written by Peter Selinger 2001-2013
</metadata>
<g transform="translate(0.000000,780.000000) scale(0.100000,-0.100000)"
fill="#000000" stroke="none">
<path d="M5130 7790 c-557 -69 -1053 -381 -1349 -852 -41 -65 -43 -67 -69 -56
-16 7 -81 12 -162 12 -368 -1 -861 -181 -1219 -444 -318 -234 -562 -521 -734
-867 -253 -505 -319 -1054 -197 -1615 25 -116 96 -328 150 -448 164 -365 444
-715 753 -939 l77 -56 0 -415 0 -415 -67 -23 c-347 -120 -591 -466 -596 -847
-2 -129 14 -171 73 -192 50 -17 1630 -17 1680 0 54 19 70 60 70 185 0 167 -43
326 -127 472 -52 89 -208 244 -306 305 -43 26 -115 60 -160 76 l-82 28 -3 286
c-2 270 -1 285 15 277 39 -20 175 -63 288 -91 401 -100 840 -93 1230 19 55 16
108 32 118 35 16 7 17 -10 17 -266 l0 -274 -73 -27 c-151 -57 -311 -190 -412
-343 -95 -145 -147 -318 -149 -495 -1 -122 11 -156 64 -182 32 -17 93 -18 845
-17 600 0 819 3 845 12 54 19 70 60 70 185 0 248 -84 455 -255 628 -127 129
-289 226 -417 249 l-38 7 0 377 0 377 83 57 c449 306 766 728 937 1247 66 199
94 342 87 447 l-5 82 52 25 c402 197 738 571 899 1001 84 225 111 382 111 645
0 155 -4 230 -18 305 -142 782 -731 1372 -1506 1510 -112 19 -410 28 -520 15z
m449 -314 c283 -52 526 -164 742 -344 347 -290 553 -728 553 -1172 0 -643
-425 -1237 -1031 -1444 -216 -74 -437 -105 -611 -86 -351 37 -655 167 -900
384 -301 267 -478 618 -522 1039 -26 243 44 563 182 828 217 419 663 731 1138
798 41 6 86 13 100 15 47 8 265 -3 349 -18z m-2049 -1013 c25 -31 24 -45 -7
-198 -14 -71 -17 -138 -17 -315 0 -205 2 -236 27 -351 162 -761 738 -1318
1507 -1455 104 -19 403 -25 522 -11 l67 7 28 -42 c39 -59 37 -115 -11 -243
-118 -313 -264 -543 -486 -765 -165 -166 -291 -259 -491 -364 -232 -122 -444
-187 -681 -211 -335 -33 -633 -4 -882 86 -139 51 -324 141 -438 213 -239 149
-494 411 -638 653 -115 193 -226 468 -254 630 -56 317 -41 708 35 958 68 221
222 525 337 667 105 129 272 293 397 390 239 186 694 374 912 377 45 1 54 -3
73 -26z"/>
<path d="M4720 6645 c-93 -26 -142 -56 -216 -129 -81 -81 -131 -172 -165 -301
-29 -108 -33 -374 -6 -479 53 -212 191 -385 356 -447 69 -26 189 -35 260 -20
127 27 254 124 341 259 25 39 48 71 51 71 3 1 26 -30 52 -67 55 -80 153 -177
217 -215 128 -74 306 -75 453 -1 121 62 244 232 288 401 42 162 35 397 -17
553 -29 87 -96 199 -151 252 -121 117 -306 164 -482 123 -135 -32 -248 -125
-317 -260 -22 -41 -41 -75 -45 -75 -3 0 -14 19 -26 43 -59 121 -178 234 -291
278 -75 28 -224 35 -302 14z m207 -344 c55 -26 113 -101 175 -229 l50 -105
-22 -56 c-62 -154 -139 -255 -222 -291 -116 -50 -207 1 -260 146 -19 49 -22
80 -22 189 0 111 3 138 22 186 60 152 164 212 279 160z m992 1 c79 -40 130
-149 138 -297 6 -105 -7 -186 -43 -264 -31 -69 -57 -98 -109 -122 -53 -24 -99
-24 -152 2 -60 29 -106 87 -170 215 -63 127 -63 121 5 261 85 174 224 260 331
205z"/>
<path d="M2614 4866 c-64 -20 -131 -72 -169 -129 -108 -164 -48 -380 130 -468
41 -20 65 -24 135 -24 70 0 94 4 135 24 63 32 124 93 156 156 35 72 35 198 0
270 -32 63 -93 125 -155 155 -60 28 -171 36 -232 16z"/>
</g>
</svg>
